%TF.GenerationSoftware,KiCad,Pcbnew,(5.1.6)-1*%
%TF.CreationDate,2020-06-13T20:20:11+02:00*%
%TF.ProjectId,Snackboard,536e6163-6b62-46f6-9172-642e6b696361,rev?*%
%TF.SameCoordinates,Original*%
%TF.FileFunction,Legend,Bot*%
%TF.FilePolarity,Positive*%
%FSLAX46Y46*%
G04 Gerber Fmt 4.6, Leading zero omitted, Abs format (unit mm)*
G04 Created by KiCad (PCBNEW (5.1.6)-1) date 2020-06-13 20:20:11*
%MOMM*%
%LPD*%
G01*
G04 APERTURE LIST*
%ADD10C,0.100000*%
%ADD11C,0.150000*%
%ADD12C,0.075000*%
G04 APERTURE END LIST*
D10*
%TO.C,VR6*%
X70015000Y-164390000D02*
X73515000Y-164390000D01*
X70015000Y-36390000D02*
X70015000Y-164390000D01*
X70515000Y-36390000D02*
X70015000Y-36390000D01*
X86015000Y-164390000D02*
X82515000Y-164390000D01*
X86015000Y-36390000D02*
X86015000Y-164390000D01*
X85515000Y-36390000D02*
X86015000Y-36390000D01*
%TO.C,VR5*%
X104015000Y-164390000D02*
X107515000Y-164390000D01*
X104015000Y-36390000D02*
X104015000Y-164390000D01*
X104515000Y-36390000D02*
X104015000Y-36390000D01*
X120015000Y-164390000D02*
X116515000Y-164390000D01*
X120015000Y-36390000D02*
X120015000Y-164390000D01*
X119515000Y-36390000D02*
X120015000Y-36390000D01*
%TO.C,VR1*%
X257015000Y-164390000D02*
X260515000Y-164390000D01*
X257015000Y-36390000D02*
X257015000Y-164390000D01*
X257515000Y-36390000D02*
X257015000Y-36390000D01*
X273015000Y-164390000D02*
X269515000Y-164390000D01*
X273015000Y-36390000D02*
X273015000Y-164390000D01*
X272515000Y-36390000D02*
X273015000Y-36390000D01*
%TO.C,VR2*%
X223015000Y-164390000D02*
X226515000Y-164390000D01*
X223015000Y-36390000D02*
X223015000Y-164390000D01*
X223515000Y-36390000D02*
X223015000Y-36390000D01*
X239015000Y-164390000D02*
X235515000Y-164390000D01*
X239015000Y-36390000D02*
X239015000Y-164390000D01*
X238515000Y-36390000D02*
X239015000Y-36390000D01*
%TO.C,VR3*%
X172015000Y-164390000D02*
X175515000Y-164390000D01*
X172015000Y-36390000D02*
X172015000Y-164390000D01*
X172515000Y-36390000D02*
X172015000Y-36390000D01*
X188015000Y-164390000D02*
X184515000Y-164390000D01*
X188015000Y-36390000D02*
X188015000Y-164390000D01*
X187515000Y-36390000D02*
X188015000Y-36390000D01*
%TO.C,VR4*%
X138015000Y-164390000D02*
X141515000Y-164390000D01*
X138015000Y-36390000D02*
X138015000Y-164390000D01*
X138515000Y-36390000D02*
X138015000Y-36390000D01*
X154015000Y-164390000D02*
X150515000Y-164390000D01*
X154015000Y-36390000D02*
X154015000Y-164390000D01*
X153515000Y-36390000D02*
X154015000Y-36390000D01*
D11*
%TO.C,XA1*%
X196498000Y-35300000D02*
X196498000Y-85780000D01*
X214498000Y-37300000D02*
X196498000Y-37300000D01*
X214532000Y-35300000D02*
X214532000Y-85780000D01*
X214498000Y-85780000D02*
X196498000Y-85780000D01*
X214532000Y-35300000D02*
X196498000Y-35300000D01*
D12*
X206145952Y-36010190D02*
X206145952Y-36414952D01*
X206122142Y-36462571D01*
X206098333Y-36486380D01*
X206050714Y-36510190D01*
X205955476Y-36510190D01*
X205907857Y-36486380D01*
X205884047Y-36462571D01*
X205860238Y-36414952D01*
X205860238Y-36010190D01*
X205645952Y-36486380D02*
X205574523Y-36510190D01*
X205455476Y-36510190D01*
X205407857Y-36486380D01*
X205384047Y-36462571D01*
X205360238Y-36414952D01*
X205360238Y-36367333D01*
X205384047Y-36319714D01*
X205407857Y-36295904D01*
X205455476Y-36272095D01*
X205550714Y-36248285D01*
X205598333Y-36224476D01*
X205622142Y-36200666D01*
X205645952Y-36153047D01*
X205645952Y-36105428D01*
X205622142Y-36057809D01*
X205598333Y-36034000D01*
X205550714Y-36010190D01*
X205431666Y-36010190D01*
X205360238Y-36034000D01*
X204979285Y-36248285D02*
X204907857Y-36272095D01*
X204884047Y-36295904D01*
X204860238Y-36343523D01*
X204860238Y-36414952D01*
X204884047Y-36462571D01*
X204907857Y-36486380D01*
X204955476Y-36510190D01*
X205145952Y-36510190D01*
X205145952Y-36010190D01*
X204979285Y-36010190D01*
X204931666Y-36034000D01*
X204907857Y-36057809D01*
X204884047Y-36105428D01*
X204884047Y-36153047D01*
X204907857Y-36200666D01*
X204931666Y-36224476D01*
X204979285Y-36248285D01*
X205145952Y-36248285D01*
%TD*%
M02*
