M48
; DRILL file {KiCad (5.1.6)-1} date 07/07/20 10:02:38
; FORMAT={-:-/ absolute / inch / decimal}
; #@! TF.CreationDate,2020-07-07T10:02:38+02:00
; #@! TF.GenerationSoftware,Kicad,Pcbnew,(5.1.6)-1
; #@! TF.FileFunction,Plated,1,2,PTH
FMAT,2
INCH
T1C0.0433
T2C0.0591
%
G90
G05
T1
X7.7321Y-1.4339
X7.7321Y-1.5339
X7.7321Y-1.6339
X7.7321Y-1.7339
X7.7321Y-1.8339
X7.7321Y-1.9339
X7.7321Y-2.0339
X7.7321Y-2.1339
X7.7321Y-2.2339
X7.7321Y-2.3339
X7.7321Y-2.4339
X7.7321Y-2.5339
X8.3321Y-1.4339
X8.3321Y-1.5339
X8.3321Y-1.6339
X8.3321Y-1.7339
X8.3321Y-1.8339
X8.3321Y-1.9339
X8.3321Y-2.0339
X8.3321Y-2.1339
X8.3321Y-2.2339
X8.3321Y-2.3339
X8.3321Y-2.4339
X8.3321Y-2.5339
T2
X10.2122Y-1.4425
X10.3598Y-1.4425
X10.3598Y-6.4622
X10.5075Y-1.4425
X10.5075Y-6.4622
X10.6551Y-1.4425
X8.8736Y-1.4425
X9.0213Y-1.4425
X9.0213Y-6.4622
X9.1689Y-1.4425
X9.1689Y-6.4622
X9.3165Y-1.4425
X5.5272Y-1.4425
X5.6748Y-1.4425
X5.6748Y-6.4622
X5.8224Y-1.4425
X5.8224Y-6.4622
X5.9701Y-1.4425
X2.85Y-1.4425
X2.9976Y-1.4425
X2.9976Y-6.4622
X3.1453Y-1.4425
X3.1453Y-6.4622
X3.2929Y-1.4425
X4.1886Y-1.4425
X4.3362Y-1.4425
X4.3362Y-6.4622
X4.4839Y-1.4425
X4.4839Y-6.4622
X4.6315Y-1.4425
X6.8657Y-1.4425
X7.0134Y-1.4425
X7.0134Y-6.4622
X7.161Y-1.4425
X7.161Y-6.4622
X7.3087Y-1.4425
T0
M30
