%TF.GenerationSoftware,KiCad,Pcbnew,(5.1.6)-1*%
%TF.CreationDate,2020-07-07T10:02:33+02:00*%
%TF.ProjectId,Snackboard_pro_micro,536e6163-6b62-46f6-9172-645f70726f5f,rev?*%
%TF.SameCoordinates,Original*%
%TF.FileFunction,Copper,L1,Top*%
%TF.FilePolarity,Positive*%
%FSLAX46Y46*%
G04 Gerber Fmt 4.6, Leading zero omitted, Abs format (unit mm)*
G04 Created by KiCad (PCBNEW (5.1.6)-1) date 2020-07-07 10:02:33*
%MOMM*%
%LPD*%
G01*
G04 APERTURE LIST*
%TA.AperFunction,ComponentPad*%
%ADD10R,1.600000X1.600000*%
%TD*%
%TA.AperFunction,ComponentPad*%
%ADD11C,1.600000*%
%TD*%
%TA.AperFunction,ComponentPad*%
%ADD12C,2.250000*%
%TD*%
G04 APERTURE END LIST*
D10*
%TO.P,U1,1*%
%TO.N,Net-(U1-Pad1)*%
X196395000Y-36420000D03*
D11*
%TO.P,U1,2*%
%TO.N,Net-(U1-Pad2)*%
X196395000Y-38960000D03*
%TO.P,U1,3*%
%TO.N,GND*%
X196395000Y-41500000D03*
%TO.P,U1,4*%
%TO.N,Net-(U1-Pad4)*%
X196395000Y-44040000D03*
%TO.P,U1,5*%
%TO.N,Net-(U1-Pad5)*%
X196395000Y-46580000D03*
%TO.P,U1,6*%
%TO.N,Net-(U1-Pad6)*%
X196395000Y-49120000D03*
%TO.P,U1,7*%
%TO.N,A5*%
X196395000Y-51660000D03*
%TO.P,U1,8*%
%TO.N,Net-(U1-Pad8)*%
X196395000Y-54200000D03*
%TO.P,U1,9*%
%TO.N,A4*%
X196395000Y-56740000D03*
%TO.P,U1,10*%
%TO.N,Net-(U1-Pad10)*%
X196395000Y-59280000D03*
%TO.P,U1,11*%
%TO.N,A3*%
X196395000Y-61820000D03*
%TO.P,U1,12*%
%TO.N,A2*%
X196395000Y-64360000D03*
%TO.P,U1,13*%
%TO.N,Net-(U1-Pad13)*%
X211635000Y-64360000D03*
%TO.P,U1,14*%
%TO.N,Net-(U1-Pad14)*%
X211635000Y-61820000D03*
%TO.P,U1,15*%
%TO.N,Net-(U1-Pad15)*%
X211635000Y-59280000D03*
%TO.P,U1,16*%
%TO.N,Net-(U1-Pad16)*%
X211635000Y-56740000D03*
%TO.P,U1,17*%
%TO.N,Net-(U1-Pad17)*%
X211635000Y-54200000D03*
%TO.P,U1,18*%
%TO.N,Net-(U1-Pad18)*%
X211635000Y-51660000D03*
%TO.P,U1,19*%
%TO.N,A0*%
X211635000Y-49120000D03*
%TO.P,U1,20*%
%TO.N,A1*%
X211635000Y-46580000D03*
%TO.P,U1,21*%
%TO.N,5V*%
X211635000Y-44040000D03*
%TO.P,U1,22*%
%TO.N,Net-(U1-Pad22)*%
X211635000Y-41500000D03*
%TO.P,U1,23*%
%TO.N,Net-(U1-Pad23)*%
X211635000Y-38960000D03*
%TO.P,U1,24*%
%TO.N,Net-(U1-Pad24)*%
X211635000Y-36420000D03*
%TD*%
D12*
%TO.P,VR6,B3*%
%TO.N,Net-(VR6-PadB3)*%
X76140000Y-164140000D03*
%TO.P,VR6,B2*%
%TO.N,Net-(VR6-PadB2)*%
X72390000Y-36640000D03*
%TO.P,VR6,B1*%
%TO.N,Net-(VR6-PadB1)*%
X76140000Y-36640000D03*
%TO.P,VR6,A3*%
%TO.N,GND*%
X79890000Y-164140000D03*
%TO.P,VR6,A2*%
%TO.N,A5*%
X83640000Y-36640000D03*
%TO.P,VR6,A1*%
%TO.N,5V*%
X79890000Y-36640000D03*
%TD*%
%TO.P,VR5,B3*%
%TO.N,Net-(VR5-PadB3)*%
X110140000Y-164140000D03*
%TO.P,VR5,B2*%
%TO.N,Net-(VR5-PadB2)*%
X106390000Y-36640000D03*
%TO.P,VR5,B1*%
%TO.N,Net-(VR5-PadB1)*%
X110140000Y-36640000D03*
%TO.P,VR5,A3*%
%TO.N,GND*%
X113890000Y-164140000D03*
%TO.P,VR5,A2*%
%TO.N,A4*%
X117640000Y-36640000D03*
%TO.P,VR5,A1*%
%TO.N,5V*%
X113890000Y-36640000D03*
%TD*%
%TO.P,VR1,B3*%
%TO.N,Net-(VR1-PadB3)*%
X263140000Y-164140000D03*
%TO.P,VR1,B2*%
%TO.N,Net-(VR1-PadB2)*%
X259390000Y-36640000D03*
%TO.P,VR1,B1*%
%TO.N,Net-(VR1-PadB1)*%
X263140000Y-36640000D03*
%TO.P,VR1,A3*%
%TO.N,GND*%
X266890000Y-164140000D03*
%TO.P,VR1,A2*%
%TO.N,A0*%
X270640000Y-36640000D03*
%TO.P,VR1,A1*%
%TO.N,5V*%
X266890000Y-36640000D03*
%TD*%
%TO.P,VR2,B3*%
%TO.N,Net-(VR2-PadB3)*%
X229140000Y-164140000D03*
%TO.P,VR2,B2*%
%TO.N,Net-(VR2-PadB2)*%
X225390000Y-36640000D03*
%TO.P,VR2,B1*%
%TO.N,Net-(VR2-PadB1)*%
X229140000Y-36640000D03*
%TO.P,VR2,A3*%
%TO.N,GND*%
X232890000Y-164140000D03*
%TO.P,VR2,A2*%
%TO.N,A1*%
X236640000Y-36640000D03*
%TO.P,VR2,A1*%
%TO.N,5V*%
X232890000Y-36640000D03*
%TD*%
%TO.P,VR3,B3*%
%TO.N,Net-(VR3-PadB3)*%
X178140000Y-164140000D03*
%TO.P,VR3,B2*%
%TO.N,Net-(VR3-PadB2)*%
X174390000Y-36640000D03*
%TO.P,VR3,B1*%
%TO.N,Net-(VR3-PadB1)*%
X178140000Y-36640000D03*
%TO.P,VR3,A3*%
%TO.N,GND*%
X181890000Y-164140000D03*
%TO.P,VR3,A2*%
%TO.N,A2*%
X185640000Y-36640000D03*
%TO.P,VR3,A1*%
%TO.N,5V*%
X181890000Y-36640000D03*
%TD*%
%TO.P,VR4,B3*%
%TO.N,Net-(VR4-PadB3)*%
X144140000Y-164140000D03*
%TO.P,VR4,B2*%
%TO.N,Net-(VR4-PadB2)*%
X140390000Y-36640000D03*
%TO.P,VR4,B1*%
%TO.N,Net-(VR4-PadB1)*%
X144140000Y-36640000D03*
%TO.P,VR4,A3*%
%TO.N,GND*%
X147890000Y-164140000D03*
%TO.P,VR4,A2*%
%TO.N,A3*%
X151640000Y-36640000D03*
%TO.P,VR4,A1*%
%TO.N,5V*%
X147890000Y-36640000D03*
%TD*%
M02*
