M48
; DRILL file {KiCad (5.1.6)-1} date 06/13/20 20:21:57
; FORMAT={-:-/ absolute / inch / decimal}
; #@! TF.CreationDate,2020-06-13T20:21:57+02:00
; #@! TF.GenerationSoftware,Kicad,Pcbnew,(5.1.6)-1
; #@! TF.FileFunction,Plated,1,2,PTH
FMAT,2
INCH
T1C0.0400
T2C0.0591
%
G90
G05
T1
X7.7905Y-1.6228
X7.7905Y-1.7228
X7.7905Y-1.8228
X7.7905Y-1.9228
X7.7905Y-2.0228
X7.7905Y-2.1228
X7.7905Y-2.2228
X7.7905Y-2.3228
X7.7905Y-2.4228
X7.7905Y-2.5228
X7.7905Y-2.6228
X7.7905Y-2.7228
X7.7905Y-2.8228
X7.7905Y-2.9228
X7.7905Y-3.0228
X7.7905Y-3.1228
X7.7905Y-3.2228
X8.3905Y-1.6228
X8.3905Y-1.7228
X8.3905Y-1.8228
X8.3905Y-1.9228
X8.3905Y-2.0228
X8.3905Y-2.1228
X8.3905Y-2.2228
X8.3905Y-2.3228
X8.3905Y-2.4228
X8.3905Y-2.5228
X8.3905Y-2.6228
X8.3905Y-2.7228
X8.3905Y-2.8228
X8.3905Y-2.9228
X8.3905Y-3.0228
X8.3905Y-3.1228
X8.3905Y-3.2228
T2
X8.8736Y-1.4425
X9.0213Y-1.4425
X9.0213Y-6.4622
X9.1689Y-1.4425
X9.1689Y-6.4622
X9.3165Y-1.4425
X10.2122Y-1.4425
X10.3598Y-1.4425
X10.3598Y-6.4622
X10.5075Y-1.4425
X10.5075Y-6.4622
X10.6551Y-1.4425
X5.5272Y-1.4425
X5.6748Y-1.4425
X5.6748Y-6.4622
X5.8224Y-1.4425
X5.8224Y-6.4622
X5.9701Y-1.4425
X4.1886Y-1.4425
X4.3362Y-1.4425
X4.3362Y-6.4622
X4.4839Y-1.4425
X4.4839Y-6.4622
X4.6315Y-1.4425
X6.8657Y-1.4425
X7.0134Y-1.4425
X7.0134Y-6.4622
X7.161Y-1.4425
X7.161Y-6.4622
X7.3087Y-1.4425
X2.85Y-1.4425
X2.9976Y-1.4425
X2.9976Y-6.4622
X3.1453Y-1.4425
X3.1453Y-6.4622
X3.2929Y-1.4425
T0
M30
